<?xml version="1.0" encoding="utf-8" standalone="no"?>
<!DOCTYPE svg PUBLIC "-//W3C//DTD SVG 1.1//EN"
  "http://www.w3.org/Graphics/SVG/1.1/DTD/svg11.dtd">
<svg xmlns:xlink="http://www.w3.org/1999/xlink" width="393.141563pt" height="540.4725pt" viewBox="0 0 393.141563 540.4725" xmlns="http://www.w3.org/2000/svg" version="1.1">
 <metadata>
  <rdf:RDF xmlns:dc="http://purl.org/dc/elements/1.1/" xmlns:cc="http://creativecommons.org/ns#" xmlns:rdf="http://www.w3.org/1999/02/22-rdf-syntax-ns#">
   <cc:Work>
    <dc:type rdf:resource="http://purl.org/dc/dcmitype/StillImage"/>
    <dc:date>2025-02-16T10:44:34.410128</dc:date>
    <dc:format>image/svg+xml</dc:format>
    <dc:creator>
     <cc:Agent>
      <dc:title>Matplotlib v3.5.2, https://matplotlib.org/</dc:title>
     </cc:Agent>
    </dc:creator>
   </cc:Work>
  </rdf:RDF>
 </metadata>
 <defs>
  <style type="text/css">*{stroke-linejoin: round; stroke-linecap: butt}</style>
 </defs>
 <g id="figure_1">
  <g id="patch_1">
   <path d="M 0 540.4725 
L 393.141563 540.4725 
L 393.141563 0 
L 0 0 
z
" style="fill: #ffffff"/>
  </g>
  <g id="axes_1">
   <g id="patch_2">
    <path d="M 66.49625 500.036875 
L 374.265 500.036875 
L 374.265 21.789375 
L 66.49625 21.789375 
z
" style="fill: #ffffff"/>
   </g>
   <g id="matplotlib.axis_1">
    <g id="xtick_1">
     <g id="line2d_1">
      <path d="M 66.49625 500.036875 
L 66.49625 21.789375 
" clip-path="url(#pc8150af8e3)" style="fill: none; stroke-dasharray: 1.85,0.8; stroke-dashoffset: 0; stroke: #b0b0b0; stroke-opacity: 0.7; stroke-width: 0.5"/>
     </g>
     <g id="line2d_2">
      <defs>
       <path id="mb4d660383f" d="M 0 0 
L 0 3.5 
" style="stroke: #000000; stroke-width: 0.8"/>
      </defs>
      <g>
       <use xlink:href="#mb4d660383f" x="66.49625" y="500.036875" style="stroke: #000000; stroke-width: 0.8"/>
      </g>
     </g>
     <g id="text_1">
      <text style="font: 12px 'Arial'; text-anchor: middle" x="66.49625" y="515.62625" transform="rotate(-0, 66.49625, 515.62625)">1.98</text>
     </g>
    </g>
    <g id="xtick_2">
     <g id="line2d_3">
      <path d="M 143.438438 500.036875 
L 143.438438 21.789375 
" clip-path="url(#pc8150af8e3)" style="fill: none; stroke-dasharray: 1.85,0.8; stroke-dashoffset: 0; stroke: #b0b0b0; stroke-opacity: 0.7; stroke-width: 0.5"/>
     </g>
     <g id="line2d_4">
      <g>
       <use xlink:href="#mb4d660383f" x="143.438438" y="500.036875" style="stroke: #000000; stroke-width: 0.8"/>
      </g>
     </g>
     <g id="text_2">
      <text style="font: 12px 'Arial'; text-anchor: middle" x="143.438438" y="515.62625" transform="rotate(-0, 143.438438, 515.62625)">1.99</text>
     </g>
    </g>
    <g id="xtick_3">
     <g id="line2d_5">
      <path d="M 220.380625 500.036875 
L 220.380625 21.789375 
" clip-path="url(#pc8150af8e3)" style="fill: none; stroke-dasharray: 1.85,0.8; stroke-dashoffset: 0; stroke: #b0b0b0; stroke-opacity: 0.7; stroke-width: 0.5"/>
     </g>
     <g id="line2d_6">
      <g>
       <use xlink:href="#mb4d660383f" x="220.380625" y="500.036875" style="stroke: #000000; stroke-width: 0.8"/>
      </g>
     </g>
     <g id="text_3">
      <text style="font: 12px 'Arial'; text-anchor: middle" x="220.380625" y="515.62625" transform="rotate(-0, 220.380625, 515.62625)">2.00</text>
     </g>
    </g>
    <g id="xtick_4">
     <g id="line2d_7">
      <path d="M 297.322813 500.036875 
L 297.322813 21.789375 
" clip-path="url(#pc8150af8e3)" style="fill: none; stroke-dasharray: 1.85,0.8; stroke-dashoffset: 0; stroke: #b0b0b0; stroke-opacity: 0.7; stroke-width: 0.5"/>
     </g>
     <g id="line2d_8">
      <g>
       <use xlink:href="#mb4d660383f" x="297.322813" y="500.036875" style="stroke: #000000; stroke-width: 0.8"/>
      </g>
     </g>
     <g id="text_4">
      <text style="font: 12px 'Arial'; text-anchor: middle" x="297.322813" y="515.62625" transform="rotate(-0, 297.322813, 515.62625)">2.01</text>
     </g>
    </g>
    <g id="xtick_5">
     <g id="line2d_9">
      <path d="M 374.265 500.036875 
L 374.265 21.789375 
" clip-path="url(#pc8150af8e3)" style="fill: none; stroke-dasharray: 1.85,0.8; stroke-dashoffset: 0; stroke: #b0b0b0; stroke-opacity: 0.7; stroke-width: 0.5"/>
     </g>
     <g id="line2d_10">
      <g>
       <use xlink:href="#mb4d660383f" x="374.265" y="500.036875" style="stroke: #000000; stroke-width: 0.8"/>
      </g>
     </g>
     <g id="text_5">
      <text style="font: 12px 'Arial'; text-anchor: middle" x="374.265" y="515.62625" transform="rotate(-0, 374.265, 515.62625)">2.02</text>
     </g>
    </g>
    <g id="text_6">
     <text style="font: 12px 'Arial'; text-anchor: middle" x="220.380625" y="530.746875" transform="rotate(-0, 220.380625, 530.746875)">Position (μm)</text>
    </g>
   </g>
   <g id="matplotlib.axis_2">
    <g id="ytick_1">
     <g id="line2d_11">
      <path d="M 66.49625 455.782444 
L 374.265 455.782444 
" clip-path="url(#pc8150af8e3)" style="fill: none; stroke-dasharray: 1.85,0.8; stroke-dashoffset: 0; stroke: #b0b0b0; stroke-opacity: 0.7; stroke-width: 0.5"/>
     </g>
     <g id="line2d_12">
      <defs>
       <path id="m27b00455bb" d="M 0 0 
L -3.5 0 
" style="stroke: #000000; stroke-width: 0.8"/>
      </defs>
      <g>
       <use xlink:href="#m27b00455bb" x="66.49625" y="455.782444" style="stroke: #000000; stroke-width: 0.8"/>
      </g>
     </g>
     <g id="text_7">
      <text style="font: 12px 'Arial'; text-anchor: end" x="59.49625" y="460.077132" transform="rotate(-0, 59.49625, 460.077132)">−0.007</text>
     </g>
    </g>
    <g id="ytick_2">
     <g id="line2d_13">
      <path d="M 66.49625 396.888914 
L 374.265 396.888914 
" clip-path="url(#pc8150af8e3)" style="fill: none; stroke-dasharray: 1.85,0.8; stroke-dashoffset: 0; stroke: #b0b0b0; stroke-opacity: 0.7; stroke-width: 0.5"/>
     </g>
     <g id="line2d_14">
      <g>
       <use xlink:href="#m27b00455bb" x="66.49625" y="396.888914" style="stroke: #000000; stroke-width: 0.8"/>
      </g>
     </g>
     <g id="text_8">
      <text style="font: 12px 'Arial'; text-anchor: end" x="59.49625" y="401.183601" transform="rotate(-0, 59.49625, 401.183601)">−0.006</text>
     </g>
    </g>
    <g id="ytick_3">
     <g id="line2d_15">
      <path d="M 66.49625 337.995383 
L 374.265 337.995383 
" clip-path="url(#pc8150af8e3)" style="fill: none; stroke-dasharray: 1.85,0.8; stroke-dashoffset: 0; stroke: #b0b0b0; stroke-opacity: 0.7; stroke-width: 0.5"/>
     </g>
     <g id="line2d_16">
      <g>
       <use xlink:href="#m27b00455bb" x="66.49625" y="337.995383" style="stroke: #000000; stroke-width: 0.8"/>
      </g>
     </g>
     <g id="text_9">
      <text style="font: 12px 'Arial'; text-anchor: end" x="59.49625" y="342.290071" transform="rotate(-0, 59.49625, 342.290071)">−0.005</text>
     </g>
    </g>
    <g id="ytick_4">
     <g id="line2d_17">
      <path d="M 66.49625 279.101853 
L 374.265 279.101853 
" clip-path="url(#pc8150af8e3)" style="fill: none; stroke-dasharray: 1.85,0.8; stroke-dashoffset: 0; stroke: #b0b0b0; stroke-opacity: 0.7; stroke-width: 0.5"/>
     </g>
     <g id="line2d_18">
      <g>
       <use xlink:href="#m27b00455bb" x="66.49625" y="279.101853" style="stroke: #000000; stroke-width: 0.8"/>
      </g>
     </g>
     <g id="text_10">
      <text style="font: 12px 'Arial'; text-anchor: end" x="59.49625" y="283.39654" transform="rotate(-0, 59.49625, 283.39654)">−0.004</text>
     </g>
    </g>
    <g id="ytick_5">
     <g id="line2d_19">
      <path d="M 66.49625 220.208322 
L 374.265 220.208322 
" clip-path="url(#pc8150af8e3)" style="fill: none; stroke-dasharray: 1.85,0.8; stroke-dashoffset: 0; stroke: #b0b0b0; stroke-opacity: 0.7; stroke-width: 0.5"/>
     </g>
     <g id="line2d_20">
      <g>
       <use xlink:href="#m27b00455bb" x="66.49625" y="220.208322" style="stroke: #000000; stroke-width: 0.8"/>
      </g>
     </g>
     <g id="text_11">
      <text style="font: 12px 'Arial'; text-anchor: end" x="59.49625" y="224.50301" transform="rotate(-0, 59.49625, 224.50301)">−0.003</text>
     </g>
    </g>
    <g id="ytick_6">
     <g id="line2d_21">
      <path d="M 66.49625 161.314792 
L 374.265 161.314792 
" clip-path="url(#pc8150af8e3)" style="fill: none; stroke-dasharray: 1.85,0.8; stroke-dashoffset: 0; stroke: #b0b0b0; stroke-opacity: 0.7; stroke-width: 0.5"/>
     </g>
     <g id="line2d_22">
      <g>
       <use xlink:href="#m27b00455bb" x="66.49625" y="161.314792" style="stroke: #000000; stroke-width: 0.8"/>
      </g>
     </g>
     <g id="text_12">
      <text style="font: 12px 'Arial'; text-anchor: end" x="59.49625" y="165.609479" transform="rotate(-0, 59.49625, 165.609479)">−0.002</text>
     </g>
    </g>
    <g id="ytick_7">
     <g id="line2d_23">
      <path d="M 66.49625 102.421261 
L 374.265 102.421261 
" clip-path="url(#pc8150af8e3)" style="fill: none; stroke-dasharray: 1.85,0.8; stroke-dashoffset: 0; stroke: #b0b0b0; stroke-opacity: 0.7; stroke-width: 0.5"/>
     </g>
     <g id="line2d_24">
      <g>
       <use xlink:href="#m27b00455bb" x="66.49625" y="102.421261" style="stroke: #000000; stroke-width: 0.8"/>
      </g>
     </g>
     <g id="text_13">
      <text style="font: 12px 'Arial'; text-anchor: end" x="59.49625" y="106.715949" transform="rotate(-0, 59.49625, 106.715949)">−0.001</text>
     </g>
    </g>
    <g id="ytick_8">
     <g id="line2d_25">
      <path d="M 66.49625 43.527731 
L 374.265 43.527731 
" clip-path="url(#pc8150af8e3)" style="fill: none; stroke-dasharray: 1.85,0.8; stroke-dashoffset: 0; stroke: #b0b0b0; stroke-opacity: 0.7; stroke-width: 0.5"/>
     </g>
     <g id="line2d_26">
      <g>
       <use xlink:href="#m27b00455bb" x="66.49625" y="43.527731" style="stroke: #000000; stroke-width: 0.8"/>
      </g>
     </g>
     <g id="text_14">
      <text style="font: 12px 'Arial'; text-anchor: end" x="59.49625" y="47.822418" transform="rotate(-0, 59.49625, 47.822418)">0.000</text>
     </g>
    </g>
    <g id="text_15">
     <text style="font: 12px 'Arial'; text-anchor: middle" x="15.935625" y="260.913125" transform="rotate(-90, 15.935625, 260.913125)">Voltage (V)</text>
    </g>
   </g>
   <g id="line2d_27">
    <path d="M 64.572695 43.527871 
L 66.49625 43.527898 
L 68.419805 43.527929 
L 70.343359 43.527966 
L 72.266914 43.52801 
L 74.190469 43.528062 
L 76.114023 43.528124 
L 78.037578 43.528198 
L 79.961133 43.528285 
L 81.884688 43.528389 
L 83.808242 43.528512 
L 85.731797 43.528658 
L 87.655352 43.528831 
L 89.578906 43.529037 
L 91.502461 43.529281 
L 93.426016 43.529571 
L 95.34957 43.529915 
L 97.273125 43.530323 
L 99.19668 43.530808 
L 101.120234 43.531384 
L 103.043789 43.532066 
L 104.967344 43.532877 
L 106.890898 43.533839 
L 108.814453 43.534981 
L 110.738008 43.536337 
L 112.661563 43.537946 
L 114.585117 43.539856 
L 116.508672 43.542123 
L 118.432227 43.544814 
L 120.355781 43.548008 
L 122.279336 43.551799 
L 124.202891 43.556299 
L 126.126445 43.561641 
L 128.05 43.567981 
L 129.973555 43.575506 
L 131.897109 43.584439 
L 133.820664 43.595041 
L 135.744219 43.607626 
L 137.667773 43.622564 
L 139.591328 43.640295 
L 141.514883 43.66134 
L 143.438438 43.686321 
L 145.361992 43.715972 
L 147.285547 43.751167 
L 149.209102 43.792943 
L 151.132656 43.842529 
L 153.056211 43.901386 
L 154.979766 43.971247 
L 156.90332 44.05417 
L 158.826875 44.152597 
L 160.75043 44.269427 
L 162.673984 44.4081 
L 164.597539 44.572701 
L 166.521094 44.768076 
L 168.444648 44.99998 
L 170.368203 45.275243 
L 172.291758 45.601971 
L 174.215313 45.989786 
L 176.138867 46.45011 
L 178.062422 46.9965 
L 179.985977 47.645047 
L 181.909531 48.414851 
L 183.833086 49.328583 
L 185.756641 50.413153 
L 187.680195 51.700503 
L 189.60375 53.228545 
L 191.527305 55.042281 
L 193.450859 57.195127 
L 195.374414 59.750485 
L 197.297969 62.783612 
L 199.221523 66.383834 
L 201.145078 70.657181 
L 203.068633 75.729504 
L 204.992188 81.750186 
L 206.915742 88.89654 
L 208.839297 97.379029 
L 210.762852 107.447468 
L 212.686406 119.398376 
L 214.609961 133.583715 
L 216.533516 150.42125 
L 218.45707 170.406855 
L 220.380625 194.129118 
L 224.227734 201.415509 
L 228.074844 208.701899 
L 231.921953 215.98829 
L 235.769063 223.274681 
L 239.616172 230.561071 
L 243.463281 237.847462 
L 247.310391 245.133852 
L 251.1575 252.420243 
L 255.004609 259.706634 
L 258.851719 266.993024 
L 262.698828 274.279415 
L 266.545938 281.565806 
L 270.393047 288.852196 
L 274.240156 296.138587 
L 278.087266 303.424977 
L 281.934375 310.711368 
L 285.781484 317.997759 
L 289.628594 325.284149 
L 293.475703 332.57054 
L 297.322813 339.856931 
L 301.169922 347.143321 
L 305.017031 354.429712 
L 308.864141 361.716102 
L 312.71125 369.002493 
L 316.558359 376.288884 
L 320.405469 383.575274 
L 324.252578 390.861665 
L 328.099688 398.148055 
L 331.946797 405.434446 
L 335.793906 412.720837 
L 339.641016 420.007227 
L 343.488125 427.293618 
L 347.335234 434.580009 
L 351.182344 441.866399 
L 355.029453 449.15279 
L 358.876563 456.43918 
L 362.723672 463.725571 
L 366.570781 471.011962 
L 370.417891 478.298352 
L 374.265 485.584743 
" clip-path="url(#pc8150af8e3)" style="fill: none; stroke: #1f77b4; stroke-width: 1.5; stroke-linecap: square"/>
    <defs>
     <path id="m96daf7e663" d="M 0 1 
C 0.265203 1 0.51958 0.894634 0.707107 0.707107 
C 0.894634 0.51958 1 0.265203 1 0 
C 1 -0.265203 0.894634 -0.51958 0.707107 -0.707107 
C 0.51958 -0.894634 0.265203 -1 0 -1 
C -0.265203 -1 -0.51958 -0.894634 -0.707107 -0.707107 
C -0.894634 -0.51958 -1 -0.265203 -1 0 
C -1 0.265203 -0.894634 0.51958 -0.707107 0.707107 
C -0.51958 0.894634 -0.265203 1 0 1 
z
" style="stroke: #1f77b4"/>
    </defs>
    <g clip-path="url(#pc8150af8e3)">
     <use xlink:href="#m96daf7e663" x="64.572695" y="43.527871" style="fill: #1f77b4; stroke: #1f77b4"/>
     <use xlink:href="#m96daf7e663" x="66.49625" y="43.527898" style="fill: #1f77b4; stroke: #1f77b4"/>
     <use xlink:href="#m96daf7e663" x="68.419805" y="43.527929" style="fill: #1f77b4; stroke: #1f77b4"/>
     <use xlink:href="#m96daf7e663" x="70.343359" y="43.527966" style="fill: #1f77b4; stroke: #1f77b4"/>
     <use xlink:href="#m96daf7e663" x="72.266914" y="43.52801" style="fill: #1f77b4; stroke: #1f77b4"/>
     <use xlink:href="#m96daf7e663" x="74.190469" y="43.528062" style="fill: #1f77b4; stroke: #1f77b4"/>
     <use xlink:href="#m96daf7e663" x="76.114023" y="43.528124" style="fill: #1f77b4; stroke: #1f77b4"/>
     <use xlink:href="#m96daf7e663" x="78.037578" y="43.528198" style="fill: #1f77b4; stroke: #1f77b4"/>
     <use xlink:href="#m96daf7e663" x="79.961133" y="43.528285" style="fill: #1f77b4; stroke: #1f77b4"/>
     <use xlink:href="#m96daf7e663" x="81.884688" y="43.528389" style="fill: #1f77b4; stroke: #1f77b4"/>
     <use xlink:href="#m96daf7e663" x="83.808242" y="43.528512" style="fill: #1f77b4; stroke: #1f77b4"/>
     <use xlink:href="#m96daf7e663" x="85.731797" y="43.528658" style="fill: #1f77b4; stroke: #1f77b4"/>
     <use xlink:href="#m96daf7e663" x="87.655352" y="43.528831" style="fill: #1f77b4; stroke: #1f77b4"/>
     <use xlink:href="#m96daf7e663" x="89.578906" y="43.529037" style="fill: #1f77b4; stroke: #1f77b4"/>
     <use xlink:href="#m96daf7e663" x="91.502461" y="43.529281" style="fill: #1f77b4; stroke: #1f77b4"/>
     <use xlink:href="#m96daf7e663" x="93.426016" y="43.529571" style="fill: #1f77b4; stroke: #1f77b4"/>
     <use xlink:href="#m96daf7e663" x="95.34957" y="43.529915" style="fill: #1f77b4; stroke: #1f77b4"/>
     <use xlink:href="#m96daf7e663" x="97.273125" y="43.530323" style="fill: #1f77b4; stroke: #1f77b4"/>
     <use xlink:href="#m96daf7e663" x="99.19668" y="43.530808" style="fill: #1f77b4; stroke: #1f77b4"/>
     <use xlink:href="#m96daf7e663" x="101.120234" y="43.531384" style="fill: #1f77b4; stroke: #1f77b4"/>
     <use xlink:href="#m96daf7e663" x="103.043789" y="43.532066" style="fill: #1f77b4; stroke: #1f77b4"/>
     <use xlink:href="#m96daf7e663" x="104.967344" y="43.532877" style="fill: #1f77b4; stroke: #1f77b4"/>
     <use xlink:href="#m96daf7e663" x="106.890898" y="43.533839" style="fill: #1f77b4; stroke: #1f77b4"/>
     <use xlink:href="#m96daf7e663" x="108.814453" y="43.534981" style="fill: #1f77b4; stroke: #1f77b4"/>
     <use xlink:href="#m96daf7e663" x="110.738008" y="43.536337" style="fill: #1f77b4; stroke: #1f77b4"/>
     <use xlink:href="#m96daf7e663" x="112.661563" y="43.537946" style="fill: #1f77b4; stroke: #1f77b4"/>
     <use xlink:href="#m96daf7e663" x="114.585117" y="43.539856" style="fill: #1f77b4; stroke: #1f77b4"/>
     <use xlink:href="#m96daf7e663" x="116.508672" y="43.542123" style="fill: #1f77b4; stroke: #1f77b4"/>
     <use xlink:href="#m96daf7e663" x="118.432227" y="43.544814" style="fill: #1f77b4; stroke: #1f77b4"/>
     <use xlink:href="#m96daf7e663" x="120.355781" y="43.548008" style="fill: #1f77b4; stroke: #1f77b4"/>
     <use xlink:href="#m96daf7e663" x="122.279336" y="43.551799" style="fill: #1f77b4; stroke: #1f77b4"/>
     <use xlink:href="#m96daf7e663" x="124.202891" y="43.556299" style="fill: #1f77b4; stroke: #1f77b4"/>
     <use xlink:href="#m96daf7e663" x="126.126445" y="43.561641" style="fill: #1f77b4; stroke: #1f77b4"/>
     <use xlink:href="#m96daf7e663" x="128.05" y="43.567981" style="fill: #1f77b4; stroke: #1f77b4"/>
     <use xlink:href="#m96daf7e663" x="129.973555" y="43.575506" style="fill: #1f77b4; stroke: #1f77b4"/>
     <use xlink:href="#m96daf7e663" x="131.897109" y="43.584439" style="fill: #1f77b4; stroke: #1f77b4"/>
     <use xlink:href="#m96daf7e663" x="133.820664" y="43.595041" style="fill: #1f77b4; stroke: #1f77b4"/>
     <use xlink:href="#m96daf7e663" x="135.744219" y="43.607626" style="fill: #1f77b4; stroke: #1f77b4"/>
     <use xlink:href="#m96daf7e663" x="137.667773" y="43.622564" style="fill: #1f77b4; stroke: #1f77b4"/>
     <use xlink:href="#m96daf7e663" x="139.591328" y="43.640295" style="fill: #1f77b4; stroke: #1f77b4"/>
     <use xlink:href="#m96daf7e663" x="141.514883" y="43.66134" style="fill: #1f77b4; stroke: #1f77b4"/>
     <use xlink:href="#m96daf7e663" x="143.438438" y="43.686321" style="fill: #1f77b4; stroke: #1f77b4"/>
     <use xlink:href="#m96daf7e663" x="145.361992" y="43.715972" style="fill: #1f77b4; stroke: #1f77b4"/>
     <use xlink:href="#m96daf7e663" x="147.285547" y="43.751167" style="fill: #1f77b4; stroke: #1f77b4"/>
     <use xlink:href="#m96daf7e663" x="149.209102" y="43.792943" style="fill: #1f77b4; stroke: #1f77b4"/>
     <use xlink:href="#m96daf7e663" x="151.132656" y="43.842529" style="fill: #1f77b4; stroke: #1f77b4"/>
     <use xlink:href="#m96daf7e663" x="153.056211" y="43.901386" style="fill: #1f77b4; stroke: #1f77b4"/>
     <use xlink:href="#m96daf7e663" x="154.979766" y="43.971247" style="fill: #1f77b4; stroke: #1f77b4"/>
     <use xlink:href="#m96daf7e663" x="156.90332" y="44.05417" style="fill: #1f77b4; stroke: #1f77b4"/>
     <use xlink:href="#m96daf7e663" x="158.826875" y="44.152597" style="fill: #1f77b4; stroke: #1f77b4"/>
     <use xlink:href="#m96daf7e663" x="160.75043" y="44.269427" style="fill: #1f77b4; stroke: #1f77b4"/>
     <use xlink:href="#m96daf7e663" x="162.673984" y="44.4081" style="fill: #1f77b4; stroke: #1f77b4"/>
     <use xlink:href="#m96daf7e663" x="164.597539" y="44.572701" style="fill: #1f77b4; stroke: #1f77b4"/>
     <use xlink:href="#m96daf7e663" x="166.521094" y="44.768076" style="fill: #1f77b4; stroke: #1f77b4"/>
     <use xlink:href="#m96daf7e663" x="168.444648" y="44.99998" style="fill: #1f77b4; stroke: #1f77b4"/>
     <use xlink:href="#m96daf7e663" x="170.368203" y="45.275243" style="fill: #1f77b4; stroke: #1f77b4"/>
     <use xlink:href="#m96daf7e663" x="172.291758" y="45.601971" style="fill: #1f77b4; stroke: #1f77b4"/>
     <use xlink:href="#m96daf7e663" x="174.215313" y="45.989786" style="fill: #1f77b4; stroke: #1f77b4"/>
     <use xlink:href="#m96daf7e663" x="176.138867" y="46.45011" style="fill: #1f77b4; stroke: #1f77b4"/>
     <use xlink:href="#m96daf7e663" x="178.062422" y="46.9965" style="fill: #1f77b4; stroke: #1f77b4"/>
     <use xlink:href="#m96daf7e663" x="179.985977" y="47.645047" style="fill: #1f77b4; stroke: #1f77b4"/>
     <use xlink:href="#m96daf7e663" x="181.909531" y="48.414851" style="fill: #1f77b4; stroke: #1f77b4"/>
     <use xlink:href="#m96daf7e663" x="183.833086" y="49.328583" style="fill: #1f77b4; stroke: #1f77b4"/>
     <use xlink:href="#m96daf7e663" x="185.756641" y="50.413153" style="fill: #1f77b4; stroke: #1f77b4"/>
     <use xlink:href="#m96daf7e663" x="187.680195" y="51.700503" style="fill: #1f77b4; stroke: #1f77b4"/>
     <use xlink:href="#m96daf7e663" x="189.60375" y="53.228545" style="fill: #1f77b4; stroke: #1f77b4"/>
     <use xlink:href="#m96daf7e663" x="191.527305" y="55.042281" style="fill: #1f77b4; stroke: #1f77b4"/>
     <use xlink:href="#m96daf7e663" x="193.450859" y="57.195127" style="fill: #1f77b4; stroke: #1f77b4"/>
     <use xlink:href="#m96daf7e663" x="195.374414" y="59.750485" style="fill: #1f77b4; stroke: #1f77b4"/>
     <use xlink:href="#m96daf7e663" x="197.297969" y="62.783612" style="fill: #1f77b4; stroke: #1f77b4"/>
     <use xlink:href="#m96daf7e663" x="199.221523" y="66.383834" style="fill: #1f77b4; stroke: #1f77b4"/>
     <use xlink:href="#m96daf7e663" x="201.145078" y="70.657181" style="fill: #1f77b4; stroke: #1f77b4"/>
     <use xlink:href="#m96daf7e663" x="203.068633" y="75.729504" style="fill: #1f77b4; stroke: #1f77b4"/>
     <use xlink:href="#m96daf7e663" x="204.992188" y="81.750186" style="fill: #1f77b4; stroke: #1f77b4"/>
     <use xlink:href="#m96daf7e663" x="206.915742" y="88.89654" style="fill: #1f77b4; stroke: #1f77b4"/>
     <use xlink:href="#m96daf7e663" x="208.839297" y="97.379029" style="fill: #1f77b4; stroke: #1f77b4"/>
     <use xlink:href="#m96daf7e663" x="210.762852" y="107.447468" style="fill: #1f77b4; stroke: #1f77b4"/>
     <use xlink:href="#m96daf7e663" x="212.686406" y="119.398376" style="fill: #1f77b4; stroke: #1f77b4"/>
     <use xlink:href="#m96daf7e663" x="214.609961" y="133.583715" style="fill: #1f77b4; stroke: #1f77b4"/>
     <use xlink:href="#m96daf7e663" x="216.533516" y="150.42125" style="fill: #1f77b4; stroke: #1f77b4"/>
     <use xlink:href="#m96daf7e663" x="218.45707" y="170.406855" style="fill: #1f77b4; stroke: #1f77b4"/>
     <use xlink:href="#m96daf7e663" x="220.380625" y="194.129118" style="fill: #1f77b4; stroke: #1f77b4"/>
     <use xlink:href="#m96daf7e663" x="224.227734" y="201.415509" style="fill: #1f77b4; stroke: #1f77b4"/>
     <use xlink:href="#m96daf7e663" x="228.074844" y="208.701899" style="fill: #1f77b4; stroke: #1f77b4"/>
     <use xlink:href="#m96daf7e663" x="231.921953" y="215.98829" style="fill: #1f77b4; stroke: #1f77b4"/>
     <use xlink:href="#m96daf7e663" x="235.769063" y="223.274681" style="fill: #1f77b4; stroke: #1f77b4"/>
     <use xlink:href="#m96daf7e663" x="239.616172" y="230.561071" style="fill: #1f77b4; stroke: #1f77b4"/>
     <use xlink:href="#m96daf7e663" x="243.463281" y="237.847462" style="fill: #1f77b4; stroke: #1f77b4"/>
     <use xlink:href="#m96daf7e663" x="247.310391" y="245.133852" style="fill: #1f77b4; stroke: #1f77b4"/>
     <use xlink:href="#m96daf7e663" x="251.1575" y="252.420243" style="fill: #1f77b4; stroke: #1f77b4"/>
     <use xlink:href="#m96daf7e663" x="255.004609" y="259.706634" style="fill: #1f77b4; stroke: #1f77b4"/>
     <use xlink:href="#m96daf7e663" x="258.851719" y="266.993024" style="fill: #1f77b4; stroke: #1f77b4"/>
     <use xlink:href="#m96daf7e663" x="262.698828" y="274.279415" style="fill: #1f77b4; stroke: #1f77b4"/>
     <use xlink:href="#m96daf7e663" x="266.545938" y="281.565806" style="fill: #1f77b4; stroke: #1f77b4"/>
     <use xlink:href="#m96daf7e663" x="270.393047" y="288.852196" style="fill: #1f77b4; stroke: #1f77b4"/>
     <use xlink:href="#m96daf7e663" x="274.240156" y="296.138587" style="fill: #1f77b4; stroke: #1f77b4"/>
     <use xlink:href="#m96daf7e663" x="278.087266" y="303.424977" style="fill: #1f77b4; stroke: #1f77b4"/>
     <use xlink:href="#m96daf7e663" x="281.934375" y="310.711368" style="fill: #1f77b4; stroke: #1f77b4"/>
     <use xlink:href="#m96daf7e663" x="285.781484" y="317.997759" style="fill: #1f77b4; stroke: #1f77b4"/>
     <use xlink:href="#m96daf7e663" x="289.628594" y="325.284149" style="fill: #1f77b4; stroke: #1f77b4"/>
     <use xlink:href="#m96daf7e663" x="293.475703" y="332.57054" style="fill: #1f77b4; stroke: #1f77b4"/>
     <use xlink:href="#m96daf7e663" x="297.322813" y="339.856931" style="fill: #1f77b4; stroke: #1f77b4"/>
     <use xlink:href="#m96daf7e663" x="301.169922" y="347.143321" style="fill: #1f77b4; stroke: #1f77b4"/>
     <use xlink:href="#m96daf7e663" x="305.017031" y="354.429712" style="fill: #1f77b4; stroke: #1f77b4"/>
     <use xlink:href="#m96daf7e663" x="308.864141" y="361.716102" style="fill: #1f77b4; stroke: #1f77b4"/>
     <use xlink:href="#m96daf7e663" x="312.71125" y="369.002493" style="fill: #1f77b4; stroke: #1f77b4"/>
     <use xlink:href="#m96daf7e663" x="316.558359" y="376.288884" style="fill: #1f77b4; stroke: #1f77b4"/>
     <use xlink:href="#m96daf7e663" x="320.405469" y="383.575274" style="fill: #1f77b4; stroke: #1f77b4"/>
     <use xlink:href="#m96daf7e663" x="324.252578" y="390.861665" style="fill: #1f77b4; stroke: #1f77b4"/>
     <use xlink:href="#m96daf7e663" x="328.099688" y="398.148055" style="fill: #1f77b4; stroke: #1f77b4"/>
     <use xlink:href="#m96daf7e663" x="331.946797" y="405.434446" style="fill: #1f77b4; stroke: #1f77b4"/>
     <use xlink:href="#m96daf7e663" x="335.793906" y="412.720837" style="fill: #1f77b4; stroke: #1f77b4"/>
     <use xlink:href="#m96daf7e663" x="339.641016" y="420.007227" style="fill: #1f77b4; stroke: #1f77b4"/>
     <use xlink:href="#m96daf7e663" x="343.488125" y="427.293618" style="fill: #1f77b4; stroke: #1f77b4"/>
     <use xlink:href="#m96daf7e663" x="347.335234" y="434.580009" style="fill: #1f77b4; stroke: #1f77b4"/>
     <use xlink:href="#m96daf7e663" x="351.182344" y="441.866399" style="fill: #1f77b4; stroke: #1f77b4"/>
     <use xlink:href="#m96daf7e663" x="355.029453" y="449.15279" style="fill: #1f77b4; stroke: #1f77b4"/>
     <use xlink:href="#m96daf7e663" x="358.876563" y="456.43918" style="fill: #1f77b4; stroke: #1f77b4"/>
     <use xlink:href="#m96daf7e663" x="362.723672" y="463.725571" style="fill: #1f77b4; stroke: #1f77b4"/>
     <use xlink:href="#m96daf7e663" x="366.570781" y="471.011962" style="fill: #1f77b4; stroke: #1f77b4"/>
     <use xlink:href="#m96daf7e663" x="370.417891" y="478.298352" style="fill: #1f77b4; stroke: #1f77b4"/>
     <use xlink:href="#m96daf7e663" x="374.265" y="485.584743" style="fill: #1f77b4; stroke: #1f77b4"/>
    </g>
   </g>
   <g id="patch_3">
    <path d="M 66.49625 500.036875 
L 66.49625 21.789375 
" style="fill: none; stroke: #000000; stroke-width: 0.8; stroke-linejoin: miter; stroke-linecap: square"/>
   </g>
   <g id="patch_4">
    <path d="M 374.265 500.036875 
L 374.265 21.789375 
" style="fill: none; stroke: #000000; stroke-width: 0.8; stroke-linejoin: miter; stroke-linecap: square"/>
   </g>
   <g id="patch_5">
    <path d="M 66.49625 500.036875 
L 374.265 500.036875 
" style="fill: none; stroke: #000000; stroke-width: 0.8; stroke-linejoin: miter; stroke-linecap: square"/>
   </g>
   <g id="patch_6">
    <path d="M 66.49625 21.789375 
L 374.265 21.789375 
" style="fill: none; stroke: #000000; stroke-width: 0.8; stroke-linejoin: miter; stroke-linecap: square"/>
   </g>
   <g id="text_16">
    <text style="font: 12px 'Arial'; text-anchor: middle" x="220.380625" y="15.789375" transform="rotate(-0, 220.380625, 15.789375)">TLM Model Voltage Distribution</text>
   </g>
   <g id="legend_1">
    <g id="patch_7">
     <path d="M 265.718906 55.183125 
L 363.765 55.183125 
Q 366.765 55.183125 366.765 52.183125 
L 366.765 32.289375 
Q 366.765 29.289375 363.765 29.289375 
L 265.718906 29.289375 
Q 262.718906 29.289375 262.718906 32.289375 
L 262.718906 52.183125 
Q 262.718906 55.183125 265.718906 55.183125 
z
" style="fill: #ffffff; stroke: #cccccc; stroke-linejoin: miter"/>
    </g>
    <g id="line2d_28">
     <path d="M 268.718906 40.776094 
L 283.718906 40.776094 
L 298.718906 40.776094 
" style="fill: none; stroke: #1f77b4; stroke-width: 1.5; stroke-linecap: square"/>
     <g>
      <use xlink:href="#m96daf7e663" x="283.718906" y="40.776094" style="fill: #1f77b4; stroke: #1f77b4"/>
     </g>
    </g>
    <g id="text_17">
     <text style="font: 15px 'Arial'; text-anchor: start" x="310.718906" y="46.026094" transform="rotate(-0, 310.718906, 46.026094)">Voltage</text>
    </g>
   </g>
  </g>
 </g>
 <defs>
  <clipPath id="pc8150af8e3">
   <rect x="66.49625" y="21.789375" width="307.76875" height="478.2475"/>
  </clipPath>
 </defs>
</svg>
